<svg width="735" height="372" viewBox="0 0 735 372" fill="none" xmlns="http://www.w3.org/2000/svg">
<circle cx="352.329" cy="214.292" r="2.64269" transform="rotate(90 352.329 214.292)" fill="#1F7CFF"/>
<circle cx="352.329" cy="253.051" r="2.64269" transform="rotate(90 352.329 253.051)" fill="#1F7CFF"/>
<circle cx="352.329" cy="291.81" r="2.64269" transform="rotate(90 352.329 291.81)" fill="#1F7CFF"/>
<circle cx="352.329" cy="330.569" r="2.64269" transform="rotate(90 352.329 330.569)" fill="#1F7CFF"/>
<circle cx="352.329" cy="369.329" r="2.64269" transform="rotate(90 352.329 369.329)" fill="#1F7CFF"/>
<circle cx="313.57" cy="214.291" r="2.64269" transform="rotate(90 313.57 214.291)" fill="#1F7CFF"/>
<circle cx="313.57" cy="253.051" r="2.64269" transform="rotate(90 313.57 253.051)" fill="#1F7CFF"/>
<circle cx="313.57" cy="291.81" r="2.64269" transform="rotate(90 313.57 291.81)" fill="#1F7CFF"/>
<circle cx="313.57" cy="330.569" r="2.64269" transform="rotate(90 313.57 330.569)" fill="#1F7CFF"/>
<circle cx="313.57" cy="369.329" r="2.64269" transform="rotate(90 313.57 369.329)" fill="#1F7CFF"/>
<circle cx="274.81" cy="214.291" r="2.64269" transform="rotate(90 274.81 214.291)" fill="#1F7CFF"/>
<circle cx="274.81" cy="253.051" r="2.64269" transform="rotate(90 274.81 253.051)" fill="#1F7CFF"/>
<circle cx="274.81" cy="291.81" r="2.64269" transform="rotate(90 274.81 291.81)" fill="#1F7CFF"/>
<circle cx="274.81" cy="330.569" r="2.64269" transform="rotate(90 274.81 330.569)" fill="#1F7CFF"/>
<circle cx="274.81" cy="369.329" r="2.64269" transform="rotate(90 274.81 369.329)" fill="#1F7CFF"/>
<circle cx="236.051" cy="214.291" r="2.64269" transform="rotate(90 236.051 214.291)" fill="#1F7CFF"/>
<circle cx="236.051" cy="253.051" r="2.64269" transform="rotate(90 236.051 253.051)" fill="#1F7CFF"/>
<circle cx="236.051" cy="291.81" r="2.64269" transform="rotate(90 236.051 291.81)" fill="#1F7CFF"/>
<circle cx="236.051" cy="330.569" r="2.64269" transform="rotate(90 236.051 330.569)" fill="#1F7CFF"/>
<circle cx="236.051" cy="369.329" r="2.64269" transform="rotate(90 236.051 369.329)" fill="#1F7CFF"/>
<circle cx="197.292" cy="214.291" r="2.64269" transform="rotate(90 197.292 214.291)" fill="#1F7CFF"/>
<circle cx="197.292" cy="253.051" r="2.64269" transform="rotate(90 197.292 253.051)" fill="#1F7CFF"/>
<circle cx="197.292" cy="291.81" r="2.64269" transform="rotate(90 197.292 291.81)" fill="#1F7CFF"/>
<circle cx="197.292" cy="330.569" r="2.64269" transform="rotate(90 197.292 330.569)" fill="#1F7CFF"/>
<circle cx="197.292" cy="369.329" r="2.64269" transform="rotate(90 197.292 369.329)" fill="#1F7CFF"/>
<circle cx="158.532" cy="214.291" r="2.64269" transform="rotate(90 158.532 214.291)" fill="#1F7CFF"/>
<circle cx="158.532" cy="253.051" r="2.64269" transform="rotate(90 158.532 253.051)" fill="#1F7CFF"/>
<circle cx="158.532" cy="291.81" r="2.64269" transform="rotate(90 158.532 291.81)" fill="#1F7CFF"/>
<circle cx="158.532" cy="330.569" r="2.64269" transform="rotate(90 158.532 330.569)" fill="#1F7CFF"/>
<circle cx="158.532" cy="369.329" r="2.64269" transform="rotate(90 158.532 369.329)" fill="#1F7CFF"/>
<circle cx="119.773" cy="214.291" r="2.64269" transform="rotate(90 119.773 214.291)" fill="#1F7CFF"/>
<circle cx="119.773" cy="253.051" r="2.64269" transform="rotate(90 119.773 253.051)" fill="#1F7CFF"/>
<circle cx="119.773" cy="291.81" r="2.64269" transform="rotate(90 119.773 291.81)" fill="#1F7CFF"/>
<circle cx="119.773" cy="330.569" r="2.64269" transform="rotate(90 119.773 330.569)" fill="#1F7CFF"/>
<circle cx="119.773" cy="369.329" r="2.64269" transform="rotate(90 119.773 369.329)" fill="#1F7CFF"/>
<circle cx="81.0133" cy="214.291" r="2.64269" transform="rotate(90 81.0133 214.291)" fill="#1F7CFF"/>
<circle cx="81.0133" cy="253.051" r="2.64269" transform="rotate(90 81.0133 253.051)" fill="#1F7CFF"/>
<circle cx="81.0133" cy="291.81" r="2.64269" transform="rotate(90 81.0133 291.81)" fill="#1F7CFF"/>
<circle cx="81.0133" cy="330.569" r="2.64269" transform="rotate(90 81.0133 330.569)" fill="#1F7CFF"/>
<circle cx="81.0133" cy="369.329" r="2.64269" transform="rotate(90 81.0133 369.329)" fill="#1F7CFF"/>
<circle cx="42.254" cy="214.291" r="2.64269" transform="rotate(90 42.254 214.291)" fill="#1F7CFF"/>
<circle cx="42.254" cy="253.051" r="2.64269" transform="rotate(90 42.254 253.051)" fill="#1F7CFF"/>
<circle cx="42.2541" cy="291.81" r="2.64269" transform="rotate(90 42.2541 291.81)" fill="#1F7CFF"/>
<circle cx="42.254" cy="330.569" r="2.64269" transform="rotate(90 42.254 330.569)" fill="#1F7CFF"/>
<circle cx="42.254" cy="369.329" r="2.64269" transform="rotate(90 42.254 369.329)" fill="#1F7CFF"/>
<circle cx="3.49458" cy="214.291" r="2.64269" transform="rotate(90 3.49458 214.291)" fill="#1F7CFF"/>
<circle cx="3.49458" cy="253.051" r="2.64269" transform="rotate(90 3.49458 253.051)" fill="#1F7CFF"/>
<circle cx="3.49461" cy="291.81" r="2.64269" transform="rotate(90 3.49461 291.81)" fill="#1F7CFF"/>
<circle cx="3.49458" cy="330.569" r="2.64269" transform="rotate(90 3.49458 330.569)" fill="#1F7CFF"/>
<circle cx="3.49458" cy="369.329" r="2.64269" transform="rotate(90 3.49458 369.329)" fill="#1F7CFF"/>
<circle cx="731.977" cy="3.39342" r="2.64269" transform="rotate(90 731.977 3.39342)" fill="#F75C4E"/>
<circle cx="731.977" cy="42.1517" r="2.64269" transform="rotate(90 731.977 42.1517)" fill="#F75C4E"/>
<circle cx="731.977" cy="80.9115" r="2.64269" transform="rotate(90 731.977 80.9115)" fill="#F75C4E"/>
<circle cx="731.977" cy="119.671" r="2.64269" transform="rotate(90 731.977 119.671)" fill="#F75C4E"/>
<circle cx="731.977" cy="158.431" r="2.64269" transform="rotate(90 731.977 158.431)" fill="#F75C4E"/>
<circle cx="693.218" cy="3.39293" r="2.64269" transform="rotate(90 693.218 3.39293)" fill="#F75C4E"/>
<circle cx="693.218" cy="42.1517" r="2.64269" transform="rotate(90 693.218 42.1517)" fill="#F75C4E"/>
<circle cx="693.218" cy="80.9115" r="2.64269" transform="rotate(90 693.218 80.9115)" fill="#F75C4E"/>
<circle cx="693.218" cy="119.671" r="2.64269" transform="rotate(90 693.218 119.671)" fill="#F75C4E"/>
<circle cx="693.218" cy="158.431" r="2.64269" transform="rotate(90 693.218 158.431)" fill="#F75C4E"/>
<circle cx="654.459" cy="3.39293" r="2.64269" transform="rotate(90 654.459 3.39293)" fill="#F75C4E"/>
<circle cx="654.459" cy="42.1517" r="2.64269" transform="rotate(90 654.459 42.1517)" fill="#F75C4E"/>
<circle cx="654.459" cy="80.9115" r="2.64269" transform="rotate(90 654.459 80.9115)" fill="#F75C4E"/>
<circle cx="654.459" cy="119.671" r="2.64269" transform="rotate(90 654.459 119.671)" fill="#F75C4E"/>
<circle cx="654.459" cy="158.431" r="2.64269" transform="rotate(90 654.459 158.431)" fill="#F75C4E"/>
<circle cx="615.699" cy="3.39293" r="2.64269" transform="rotate(90 615.699 3.39293)" fill="#EF4358"/>
<circle cx="615.699" cy="42.1517" r="2.64269" transform="rotate(90 615.699 42.1517)" fill="#EF4358"/>
<circle cx="615.699" cy="80.9115" r="2.64269" transform="rotate(90 615.699 80.9115)" fill="#EF4358"/>
<circle cx="615.699" cy="119.671" r="2.64269" transform="rotate(90 615.699 119.671)" fill="#EF4358"/>
<circle cx="615.699" cy="158.431" r="2.64269" transform="rotate(90 615.699 158.431)" fill="#EF4358"/>
<circle cx="576.94" cy="3.39293" r="2.64269" transform="rotate(90 576.94 3.39293)" fill="#EF4358"/>
<circle cx="576.94" cy="42.1517" r="2.64269" transform="rotate(90 576.94 42.1517)" fill="#EF4358"/>
<circle cx="576.94" cy="80.9115" r="2.64269" transform="rotate(90 576.94 80.9115)" fill="#EF4358"/>
<circle cx="576.94" cy="119.671" r="2.64269" transform="rotate(90 576.94 119.671)" fill="#EF4358"/>
<circle cx="576.94" cy="158.431" r="2.64269" transform="rotate(90 576.94 158.431)" fill="#EF4358"/>
<circle cx="538.18" cy="3.39293" r="2.64269" transform="rotate(90 538.18 3.39293)" fill="#EF4358"/>
<circle cx="538.18" cy="42.1517" r="2.64269" transform="rotate(90 538.18 42.1517)" fill="#EF4358"/>
<circle cx="538.18" cy="80.9115" r="2.64269" transform="rotate(90 538.18 80.9115)" fill="#EF4358"/>
<circle cx="538.18" cy="119.671" r="2.64269" transform="rotate(90 538.18 119.671)" fill="#EF4358"/>
<circle cx="538.18" cy="158.431" r="2.64269" transform="rotate(90 538.18 158.431)" fill="#EF4358"/>
<circle cx="499.421" cy="3.39293" r="2.64269" transform="rotate(90 499.421 3.39293)" fill="#EF4358"/>
<circle cx="499.421" cy="42.1517" r="2.64269" transform="rotate(90 499.421 42.1517)" fill="#EF4358"/>
<circle cx="499.421" cy="80.9115" r="2.64269" transform="rotate(90 499.421 80.9115)" fill="#EF4358"/>
<circle cx="499.421" cy="119.671" r="2.64269" transform="rotate(90 499.421 119.671)" fill="#EF4358"/>
<circle cx="499.421" cy="158.431" r="2.64269" transform="rotate(90 499.421 158.431)" fill="#EF4358"/>
<circle cx="460.662" cy="3.39293" r="2.64269" transform="rotate(90 460.662 3.39293)" fill="#EF4358"/>
<circle cx="460.662" cy="42.1517" r="2.64269" transform="rotate(90 460.662 42.1517)" fill="#EF4358"/>
<circle cx="460.662" cy="80.9115" r="2.64269" transform="rotate(90 460.662 80.9115)" fill="#EF4358"/>
<circle cx="460.662" cy="119.671" r="2.64269" transform="rotate(90 460.662 119.671)" fill="#EF4358"/>
<circle cx="460.662" cy="158.431" r="2.64269" transform="rotate(90 460.662 158.431)" fill="#EF4358"/>
<circle cx="421.902" cy="3.39293" r="2.64269" transform="rotate(90 421.902 3.39293)" fill="#EF4358"/>
<circle cx="421.902" cy="42.1517" r="2.64269" transform="rotate(90 421.902 42.1517)" fill="#EF4358"/>
<circle cx="421.902" cy="80.9115" r="2.64269" transform="rotate(90 421.902 80.9115)" fill="#EF4358"/>
<circle cx="421.902" cy="119.671" r="2.64269" transform="rotate(90 421.902 119.671)" fill="#EF4358"/>
<circle cx="421.902" cy="158.431" r="2.64269" transform="rotate(90 421.902 158.431)" fill="#EF4358"/>
<circle cx="383.143" cy="3.39293" r="2.64269" transform="rotate(90 383.143 3.39293)" fill="#EF4358"/>
<circle cx="383.143" cy="42.1517" r="2.64269" transform="rotate(90 383.143 42.1517)" fill="#EF4358"/>
<circle cx="383.143" cy="80.9115" r="2.64269" transform="rotate(90 383.143 80.9115)" fill="#EF4358"/>
<circle cx="383.143" cy="119.671" r="2.64269" transform="rotate(90 383.143 119.671)" fill="#EF4358"/>
<circle cx="383.143" cy="158.431" r="2.64269" transform="rotate(90 383.143 158.431)" fill="#EF4358"/>
</svg>
