<svg xmlns="http://www.w3.org/2000/svg" version="1.1" xmlns:xlink="http://www.w3.org/1999/xlink" width="500" height="500"><svg width="500" height="500" viewBox="0 0 500 500" fill="none" xmlns="http://www.w3.org/2000/svg">
<circle cx="250" cy="250" r="250" fill="#1F7CFF"></circle>
<path d="M59 269.792C59 259.835 60.9544 251.004 64.8632 243.299C68.8904 235.594 74.2798 229.667 81.0313 225.518C87.9013 221.369 95.5412 219.295 103.951 219.295C111.295 219.295 117.691 220.777 123.14 223.74C128.707 226.704 133.148 230.438 136.465 234.942V220.895H161.517V319.4H136.465V304.997C133.267 309.62 128.825 313.473 123.14 316.555C117.572 319.518 111.117 321 103.773 321C95.482 321 87.9013 318.866 81.0313 314.599C74.2798 310.332 68.8904 304.346 64.8632 296.641C60.9544 288.817 59 279.868 59 269.792ZM136.465 270.148C136.465 264.102 135.28 258.946 132.911 254.678C130.543 250.293 127.344 246.974 123.317 244.721C119.29 242.351 114.967 241.165 110.347 241.165C105.728 241.165 101.464 242.291 97.5548 244.544C93.646 246.796 90.4479 250.115 87.9605 254.501C85.5916 258.768 84.4071 263.865 84.4071 269.792C84.4071 275.719 85.5916 280.934 87.9605 285.439C90.4479 289.825 93.646 293.203 97.5548 295.574C101.582 297.945 105.846 299.13 110.347 299.13C114.967 299.13 119.29 298.004 123.317 295.752C127.344 293.381 130.543 290.062 132.911 285.794C135.28 281.409 136.465 276.193 136.465 270.148Z" fill="white"></path>
<path d="M210.685 235.298C213.883 230.556 218.265 226.704 223.832 223.74C229.518 220.777 235.973 219.295 243.199 219.295C251.608 219.295 259.189 221.369 265.941 225.518C272.81 229.667 278.2 235.594 282.109 243.299C286.136 250.885 288.149 259.716 288.149 269.792C288.149 279.868 286.136 288.817 282.109 296.641C278.2 304.346 272.81 310.332 265.941 314.599C259.189 318.866 251.608 321 243.199 321C235.855 321 229.399 319.578 223.832 316.733C218.384 313.769 214.001 309.976 210.685 305.353V319.4H185.81V187.823H210.685V235.298ZM262.742 269.792C262.742 263.865 261.499 258.768 259.011 254.501C256.642 250.115 253.444 246.796 249.417 244.544C245.508 242.291 241.244 241.165 236.625 241.165C232.124 241.165 227.859 242.351 223.832 244.721C219.923 246.974 216.725 250.293 214.238 254.678C211.869 259.064 210.685 264.221 210.685 270.148C210.685 276.074 211.869 281.231 214.238 285.617C216.725 290.003 219.923 293.381 223.832 295.752C227.859 298.004 232.124 299.13 236.625 299.13C241.244 299.13 245.508 297.945 249.417 295.574C253.444 293.203 256.642 289.825 259.011 285.439C261.499 281.053 262.742 275.837 262.742 269.792Z" fill="white"></path>
<path d="M299.829 270.148C299.829 259.953 301.901 251.063 306.047 243.477C310.193 235.772 315.938 229.845 323.281 225.696C330.625 221.429 339.035 219.295 348.511 219.295C360.711 219.295 370.779 222.377 378.715 228.541C386.769 234.586 392.159 243.121 394.883 254.145H368.055C366.633 249.878 364.205 246.559 360.77 244.188C357.454 241.699 353.308 240.454 348.333 240.454C341.226 240.454 335.6 243.062 331.454 248.277C327.309 253.375 325.236 260.665 325.236 270.148C325.236 279.512 327.309 286.802 331.454 292.018C335.6 297.115 341.226 299.663 348.333 299.663C358.401 299.663 364.975 295.159 368.055 286.15H394.883C392.159 296.818 386.769 305.294 378.715 311.576C370.66 317.859 360.592 321 348.511 321C339.035 321 330.625 318.926 323.281 314.777C315.938 310.509 310.193 304.583 306.047 296.996C301.901 289.291 299.829 280.342 299.829 270.148Z" fill="white"></path>
<path d="M425.72 209.16C421.338 209.16 417.666 207.797 414.705 205.071C411.862 202.226 410.44 198.729 410.44 194.58C410.44 190.431 411.862 186.994 414.705 184.267C417.666 181.422 421.338 180 425.72 180C430.103 180 433.715 181.422 436.558 184.267C439.519 186.994 441 190.431 441 194.58C441 198.729 439.519 202.226 436.558 205.071C433.715 207.797 430.103 209.16 425.72 209.16ZM437.98 220.895V319.4H413.106V220.895H437.98Z" fill="white"></path>
</svg><style>@media (prefers-color-scheme: light) { :root { filter: none; } }
@media (prefers-color-scheme: dark) { :root { filter: none; } }
</style></svg>